PathFileType	4	(X/Y/Z)	63_1_tpose_p0_0-187_filt_butterworth.trc
DataRate	CameraRate	NumFrames	NumMarkers	Units	OrigDataRate	OrigDataStartFrame	OrigNumFrames
60.0	60.0	7	27	m	60.0	163	187
Frame#	Time	RHip			RKnee			RAnkle			RBigToe			RSmallToe			RHeel			LHip			LKnee			LAnkle			LBigToe			LSmallToe			LHeel			Neck			Head			Nose			RShoulder			RElbow			RWrist			RThumb			RIndex			RPinky			LShoulder			LElbow			LWrist			LThumb			LIndex			LPinky			
		X1	Y1	Z1	X2	Y2	Z2	X3	Y3	Z3	X4	Y4	Z4	X5	Y5	Z5	X6	Y6	Z6	X7	Y7	Z7	X8	Y8	Z8	X9	Y9	Z9	X10	Y10	Z10	X11	Y11	Z11	X12	Y12	Z12	X13	Y13	Z13	X14	Y14	Z14	X15	Y15	Z15	X16	Y16	Z16	X17	Y17	Z17	X18	Y18	Z18	X19	Y19	Z19	X20	Y20	Z20	X21	Y21	Z21	X22	Y22	Z22	X23	Y23	Z23	X24	Y24	Z24	X25	Y25	Z25	X26	Y26	Z26	X27	Y27	Z27	
163	2.716666666666667	0.3038458320138859	0.6929855489945466	0.8091181794699294	0.33127349319678134	0.26539468358129537	0.8322865112848183	0.32735964719806515	-0.1971004204272656	0.8775673333005087	0.2944852989956236	-0.17468840848469924	0.6539496249630972	0.3600862264109326	-0.16632111080172185	0.6668939949540038	0.3249201360044249	-0.27765395228789885	0.9452652439865943	0.13029133523313505	0.6883397911834677	0.7893793960432804	0.1511137977594958	0.26433297300062186	0.845071299432092	0.17768869715624955	-0.17112366215398928	0.8962481913871126	0.14026269268203184	-0.1507597748638917	0.6559948948068032	0.08848449598027225	-0.16754131315971985	0.7234483089898535	0.20287917059720512	-0.2634340452839785	0.9489362670439134	0.18220795982708116	1.2527432969080712	0.8158349318351168	0.18284206731654584	1.4960934807237427	0.744592425865447	0.16922798133503328	1.3749293423759386	0.6667261814648902	0.3372871294961569	1.2219564221275319	0.7729767309264878	0.6151626855868756	1.2313031533150647	0.8423945118284393	0.8068918396906211	1.2466304036127978	0.8502463140042522	0.9282315654174641	1.255302517952036	0.7808655533382574	0.9598607178796097	1.2410096214408832	0.7993951912994117	0.9411159180260111	1.218951362675232	0.8311828158099848	0.041094062845323354	1.2106043756084215	0.8262377967923771	-0.21675202701327778	1.2026092003190774	0.8835863900193837	-0.4207854036926256	1.2107374206657735	0.9352785269400421	-0.49033567178538595	1.1864211812034258	0.9167254862446599	-0.5344561631483035	1.1988196760635774	0.9722933499745294	-0.5364707116032438	1.196342632093018	0.9724370383433103	
164	2.7333333333333334	0.3031138811915532	0.6935578040823114	0.8079986475425431	0.3307951463049615	0.26583031650512423	0.8313601058784724	0.3274676100240094	-0.19711428076961734	0.8775892966948262	0.2944513512463597	-0.17467334546805074	0.653841359915047	0.3605744673998065	-0.16696544559682755	0.6680134042538735	0.32491005325330924	-0.27767615029817727	0.9452753031478698	0.13026188586368995	0.6885344594955132	0.7895195219389284	0.15105212361477283	0.2644737848303371	0.8451629550539541	0.1776560559018459	-0.17122603819333818	0.8963009878117015	0.1396223214902154	-0.15356483422705997	0.6584570280332857	0.0884527138651108	-0.16757026152169532	0.7234681466995956	0.20265577765731288	-0.2640315538868685	0.9498351568598477	0.1809040799820199	1.2524972237283194	0.8169132607879261	0.18283887319641012	1.4960908903555505	0.7445706903248805	0.1691900110027324	1.3749759055275084	0.6667140050747407	0.3372906966896174	1.2219673406025073	0.7729707742883423	0.6158124881824267	1.2311794953903517	0.8435076731137428	0.8068423268228446	1.247171451670458	0.8471112691521688	0.9276219504438739	1.2563463040142315	0.7765693766979189	0.9595665928124213	1.241522031771309	0.7963704114796989	0.9411362542283199	1.2198784368517166	0.8280007968697403	0.04107539640705242	1.210621937367887	0.8262253180124985	-0.21665887632723219	1.2025407464115299	0.8840226108593017	-0.42077787194987226	1.2111935114268415	0.9325062998885472	-0.4904910697235117	1.1874907408236561	0.9151204443447691	-0.5344121477712669	1.199015090323826	0.9667185370560691	-0.536188057454573	1.1968983340534254	0.9699768628589609	
165	2.75	0.3024317699112818	0.6942247934969886	0.8069696703114269	0.330383368298873	0.26628099107387543	0.8304165847205824	0.327580526922738	-0.19713665592393587	0.877625705004321	0.2944223739061054	-0.1746605405808381	0.653742410910276	0.36148188733611464	-0.16830235267566668	0.6700894134323959	0.32489962983333937	-0.27770019222411685	0.9452882493343667	0.1302018636573422	0.6887647860180975	0.7898711808293726	0.15089954636814104	0.2647395382877792	0.8452626764314313	0.17760634889030824	-0.17146900077865734	0.8963871167957266	0.13908771084946087	-0.15572837748214857	0.66080333911442	0.08843558483993295	-0.1675843221900995	0.7234743905659073	0.20234458380821635	-0.2649079528539357	0.9511541563367413	0.17950616546422365	1.2520871478565683	0.818880696722868	0.18283731332184247	1.4960866693055423	0.744557574074865	0.16915374706957648	1.374982398564357	0.6667044421169748	0.33728463097785133	1.2219710804404893	0.7729649043850043	0.6160979109995726	1.2310836563002445	0.8445118249226229	0.806032613983769	1.2477647449093654	0.8434859506331824	0.9259871897601267	1.257770712223079	0.7699202347722698	0.9568015282322084	1.2430041318793148	0.789356335224477	0.9391073463193846	1.221379737875223	0.8228218935847638	0.04105966098851707	1.210639354925734	0.8262262220790481	-0.2166571261376478	1.2025322560694567	0.8840755818037787	-0.4210755836672582	1.2115968297813893	0.9300852102170429	-0.49030715162555094	1.1883245907266111	0.9146496132060351	-0.5339155868696119	1.1993747114415976	0.9595011551585846	-0.5357307993216247	1.1980403996260018	0.9652477202357113	
166	2.7666666666666666	0.3018191400967946	0.6949701838378437	0.8060587813828021	0.3300522937433911	0.26673494992672553	0.8294820027101477	0.32764856796191366	-0.19716940236519867	0.8776758284325937	0.29441108434069463	-0.17465045029762247	0.6536699857885653	0.36267884570078934	-0.1701115080540282	0.6727968119795034	0.3248903025831719	-0.27772699717636457	0.9453040214834352	0.1300969876906696	0.6890337446542253	0.7903890035586065	0.15066452266599475	0.2651327406007885	0.8453787645726523	0.17755901434050728	-0.17187116494743013	0.8965177495023391	0.13880268294077222	-0.15672178423774097	0.6623736194073415	0.08844171077493337	-0.16757049993545767	0.7234529962991294	0.20195371229966846	-0.2660493571123378	0.9528785572127852	0.17820398487653435	1.2515647842554407	0.8215095825480435	0.18283655249229588	1.4960822648845065	0.7445521170399125	0.169120072754535	1.3749581227524446	0.6666966693965867	0.3372662362026557	1.221965144517365	0.7729540619645165	0.6161279004298708	1.2311038553883369	0.844803647768978	0.8047403905346001	1.2483650387507237	0.8396954237893124	0.9241263179736718	1.2593555990755703	0.7628197112512991	0.9524978804395265	1.244987912580563	0.7804825834228883	0.9355848144829056	1.2230174376481635	0.8172380848125919	0.0410488741639572	1.2106494365974023	0.8262453265286925	-0.21678717999396124	1.2026096953525633	0.8835724195000344	-0.4216430430340966	1.2118889521331098	0.9283278756267375	-0.48979990583460953	1.188943011723352	0.9152745798127953	-0.5330610261746254	1.1998528156931378	0.9519812781129455	-0.5351906300376473	1.1996807112792702	0.9586925749622383	
167	2.783333333333333	0.3013032672851178	0.6957467302713038	0.8052753656646694	0.3297891294508484	0.26718061307803653	0.8285774477314102	0.32766529844779163	-0.19720860477594432	0.8777351001034863	0.29442056066863964	-0.174640108556088	0.6536232443883041	0.363891066289924	-0.17205377940092068	0.6756573128727512	0.3248833989688718	-0.2777558337718093	0.945321952599436	0.12995214418950807	0.6893889843565175	0.7909096730292877	0.15035460153459473	0.26563200128688863	0.8455194702091304	0.17752414983409343	-0.17247882569999112	0.8967021474458362	0.13881990384150816	-0.15644234272121033	0.6628756243976835	0.08846845052416069	-0.1675328724336355	0.7234127572560054	0.20151316373909464	-0.2673670149972018	0.9548768699717534	0.17715492408742134	1.2509893131306102	0.8245144087827136	0.18283569737357935	1.496079079219207	0.744550513445567	0.16908921525025156	1.3749306857057377	0.6666885703899422	0.3372390357518099	1.2219523508045635	0.77293657051689	0.6160607623934649	1.231181090602978	0.8446636835195465	0.8032476099624233	1.24885730124315	0.8364855824577779	0.9225589083511233	1.2609397989447777	0.7566299332121043	0.947965299767634	1.2469076699892256	0.772283813024811	0.931524674501633	1.224481125772845	0.8123950073722292	0.041043024296405925	1.2106513797860208	0.8262790773072386	-0.21700044651897538	1.2027364049100508	0.8827369909389061	-0.42237694105061035	1.2120262037708205	0.927483410952464	-0.48921329342131137	1.189427544453723	0.9164129090131963	-0.5321236480452942	1.200303218079208	0.945469169407636	-0.5346960575311867	1.2015883810509584	0.9511713408138718	
168	2.8	0.30091221469294904	0.6964774168116115	0.8046018971705076	0.32954762498886925	0.26761038471056187	0.8277095598377132	0.3276562929976622	-0.1972460255889975	0.8777933729213107	0.29444556837957325	-0.17462811348400464	0.6535957124126838	0.36478515013625534	-0.17381486775725213	0.6781975984703	0.324879067762055	-0.2777826195886536	0.9453397879393247	0.12980694242731833	0.6898573748933707	0.7912501579674258	0.14997156912673063	0.2661781592225097	0.8456752346673896	0.1774946455026158	-0.1732564551828158	0.8969210525279007	0.13911488101947575	-0.1551929541666869	0.6622603884634184	0.08850516902059444	-0.16748657647513943	0.7233694369904169	0.20107530968537088	-0.268693495148209	0.9568916261521525	0.17645463351431434	1.2504321225871682	0.827513501688369	0.1828338528285745	1.4960776050725677	0.7445476435015197	0.16906169158104906	1.3749165202429672	0.6666768170438507	0.33720754878086673	1.2219369218461593	0.772916039754652	0.6159420025059237	1.2311140540907703	0.8452762508351697	0.8017176919755036	1.2490356928269792	0.8350923563077444	0.9215291463258732	1.2623099881710487	0.7524823224545818	0.9441694515810993	1.2484119559335827	0.7666735331369658	0.9276989436090858	1.2255345346024098	0.809140354836187	0.04103992820279177	1.2106466883631684	0.8263175750107337	-0.21720943690779013	1.202853146516898	0.8819519483236213	-0.42308566649704366	1.2120026004883038	0.9276211633285258	-0.48886121485195544	1.1899239316223333	0.9170642346053501	-0.5313482617996337	1.2006136736115107	0.9407634133728604	-0.534347764934989	1.2034908890492757	0.9437171869451446	
169	2.816666666666667	0.3006625233828381	0.6970852957965659	0.8040188040738061	0.3292853256510484	0.26801671460374255	0.8268844247413147	0.32764424152934957	-0.1972756541936888	0.8778401829175869	0.29447926574338407	-0.17461625716295132	0.6535828986259733	0.3651111558083877	-0.17514108399081735	0.6800511490762119	0.3248762838744044	-0.2778022235294435	0.9453545091624661	0.1297111548629862	0.6903865011431168	0.7913170930489495	0.14951693760779328	0.26669982681643467	0.8458136640238181	0.1774635698177614	-0.1740773535843514	0.8971382456820338	0.1396082127250172	-0.15347115464844996	0.6606945123326157	0.08853846121452466	-0.16745063328957405	0.7233369527402148	0.20068890555583113	-0.2698877177823476	0.9586944299972286	0.17614151811834367	1.2500032233580505	0.8298647576256146	0.18283067470147657	1.4960769366528026	0.7445412034230505	0.16903887202659684	1.374917249849514	0.6666623432367593	0.3371774952899729	1.221923102474519	0.7729031601834824	0.6157184608712071	1.2307335863239577	0.8476923647343819	0.800300572384065	1.248777439925361	0.8362265872403454	0.9211526736897988	1.2633017129020332	0.751085280699853	0.9415350186119831	1.2494557033975893	0.7642663365290282	0.9245232634514865	1.22595794058285	0.8081071947114744	0.0410369038625735	1.210639934130401	0.8263510375823796	-0.2173544750248652	1.2029241765257124	0.88146152156605	-0.42351766906681565	1.2118568697099303	0.9285692363541216	-0.4888521632607624	1.1904740440054042	0.9166200122861452	-0.530869016095753	1.2007176949959657	0.9383287405995963	-0.5341868334315385	1.205074806540925	0.9376141593149308	
